<?xml version="1.0" encoding="UTF-8" standalone="no"?>
<!-- Created with Inkscape (http://www.inkscape.org/) -->

<svg
   version="1.1"
   id="svg2"
   width="407.32001"
   height="86.480003"
   viewBox="0 0 407.32001 86.480003"
   sodipodi:docname="Logo_RU_NL_cmyk.eps"
   xmlns:inkscape="http://www.inkscape.org/namespaces/inkscape"
   xmlns:sodipodi="http://sodipodi.sourceforge.net/DTD/sodipodi-0.dtd"
   xmlns="http://www.w3.org/2000/svg"
   xmlns:svg="http://www.w3.org/2000/svg">
  <defs
     id="defs6" />
  <sodipodi:namedview
     id="namedview4"
     pagecolor="#ffffff"
     bordercolor="#666666"
     borderopacity="1.0"
     inkscape:showpageshadow="2"
     inkscape:pageopacity="0.0"
     inkscape:pagecheckerboard="0"
     inkscape:deskcolor="#d1d1d1"
     showgrid="false"
     inkscape:zoom="3.5598546"
     inkscape:cx="203.66"
     inkscape:cy="43.400649"
     inkscape:window-width="2494"
     inkscape:window-height="1371"
     inkscape:window-x="0"
     inkscape:window-y="0"
     inkscape:window-maximized="1"
     inkscape:current-layer="g10" />
  <g
     id="g10"
     inkscape:groupmode="layer"
     inkscape:label="Page 1"
     transform="matrix(1.3333333,0,0,-1.3333333,0,86.48)">
    <g
       id="g12"
       transform="scale(0.1)">
      <path
         d="m 2590.77,251.039 c -1.05,-5.281 -7.59,-12.402 -15.31,-13.211 -10.82,-0.262 -19.88,8.629 -20.41,16.09 -0.41,7.078 0.09,8.879 0.09,8.879 l 36.4,-1.199 c -0.08,-4.008 0.25,-6.051 -0.77,-10.559 m 4.9,24.199 -1.37,-3.191 -39.66,1.07 -2.66,3.332 -2.61,-0.062 V 252.09 c -0.57,-11.094 10.73,-24.543 25.88,-24.5 14.21,0.769 21.09,14.18 22.06,26.68 l 1.52,21.019 -3.16,-0.051"
         style="fill:#231f20;fill-opacity:1;fill-rule:nonzero;stroke:none"
         id="path14" />
      <path
         d="m 2566.02,160.309 7.74,-15.461 1.68,0.98 -0.87,4.07 36.32,16.051 1.86,-2.281 3.14,1.5 -6.75,13.891 -2.18,-0.961 0.06,-4.289 -35.66,-15.571 -3.14,2.379 -2.2,-0.308"
         style="fill:#231f20;fill-opacity:1;fill-rule:nonzero;stroke:none"
         id="path16" />
      <path
         d="m 2577.83,176.555 v -1.711 l -10.38,-2.141 c -5.89,4.012 -8.67,8.238 -10.41,15.168 -3.39,13.512 0,26.07 17.66,30.973 18.58,5.801 26.29,-6.25 30.28,-20.301 1.15,-4.141 1.23,-7.141 1.92,-11.648 l -9.84,-2.731 -1.34,2 c 3.87,3.481 5.08,8.688 3.83,13.668 -1.93,7.633 -10.71,11.981 -17.9,9.082 l 5.18,-22.519 3.99,-1.653 0.73,-2.168 -10.5,-2.691 -0.69,2.18 1.52,2.351 -5.71,22.629 c -8.76,-0.512 -15.24,-9.52 -13.36,-18.07 1.23,-5.469 7.79,-11.668 15.02,-12.418"
         style="fill:#231f20;fill-opacity:1;fill-rule:nonzero;stroke:none"
         id="path18" />
      <path
         d="m 2570.07,285.617 c -1.24,2.742 0,6.039 2.85,7.321 2.72,1.109 6.01,0.359 7.11,-2.02 1.47,-2.82 0,-6.059 -2.6,-8.039 -2.73,-1.231 -6.01,0 -7.36,2.738"
         style="fill:#231f20;fill-opacity:1;fill-rule:nonzero;stroke:none"
         id="path20" />
      <path
         d="m 2601.23,141.578 c -1.29,2.82 -0.16,6.039 1.86,7.309 2.47,1.293 6.11,-0.028 8.2,-2.879 1.2,-2.738 -0.08,-6.11 -2.79,-7.231 -2.79,-1.32 -6.02,0.032 -7.27,2.801"
         style="fill:#231f20;fill-opacity:1;fill-rule:nonzero;stroke:none"
         id="path22" />
      <path
         d="m 2876.33,35.4023 c -1.25,2.8399 0.09,6.0391 2.95,7.3125 2.93,1.2774 6.17,0 7.33,-2.6914 1.08,-2.8203 0.01,-6.1015 -2.84,-7.4609 -2.74,-1.25 -6.01,0.0898 -7.44,2.8398"
         style="fill:#231f20;fill-opacity:1;fill-rule:nonzero;stroke:none"
         id="path24" />
      <path
         d="m 2581.36,375.641 -7.92,-15.45 1.87,-0.66 3.32,2.84 35.06,-18.07 -0.68,-2.91 3.13,-1.25 6.38,13.558 -2.31,1.082 -3.21,-2.32 -33.56,17.988 -0.37,3.629 -1.71,1.563"
         style="fill:#231f20;fill-opacity:1;fill-rule:nonzero;stroke:none"
         id="path26" />
      <path
         d="m 2603.17,307.738 -2.18,0.672 -2.08,-1.57 -26.25,5.621 37.56,14.269 3.42,8.661 -2.77,0.66 -2.53,-1.11 -35.32,14.059 -0.24,3.34 -2.57,0.808 -4.43,-12.168 3.25,-1.179 3.01,1.578 25.08,-9.789 -40.09,-15.399 -1.79,-6.011 41.9,-9.25 1.83,-1.981 1.52,-0.73 2.68,9.519"
         style="fill:#231f20;fill-opacity:1;fill-rule:nonzero;stroke:none"
         id="path28" />
      <path
         d="m 2668.18,64.4766 c -1.53,-1.5703 -7.43,-7.1407 -13.53,-7.2696 -2.59,-0.0312 -4.9,0.7891 -7.04,2.8594 l -0.6,0.6914 c -2.01,1.457 -2.94,3.2578 -3.08,5.8789 -0.03,5.0781 4.29,11.8477 7.57,15.3281 2.71,2.7305 12.63,13.1329 20.42,6.1016 l 1.16,-1.0508 c 7.54,-7.3984 -2.66,-20.1914 -4.9,-22.539 m 15.32,8.9882 v 0 c 0.35,6.6016 -0.99,12.2618 -5.29,16.6797 l -0.61,0.7422 -0.3,0.2891 -0.28,0.1719 -0.22,0.2187 -0.63,0.5 c -4.69,4.0703 -10.36,5.3984 -17,4.6797 -7.04,-0.7188 -13.69,-4.4297 -18,-10.6992 -7.58,-9.5313 -7.49,-21.8321 1.48,-30.6992 l 0.25,-0.1914 h -0.05 l -0.1,0.1015 0.15,-0.1015 c 9.6,-7.9883 22,-7.6016 31.32,0.1289 5.49,4.5703 8.87,11.2617 9.28,18.1796"
         style="fill:#231f20;fill-opacity:1;fill-rule:nonzero;stroke:none"
         id="path30" />
      <path
         d="m 2740.67,7.42188 16.32,-3.59375 0.17,1.87109 -3.59,2.69141 7.68,38.41017 3.65,0.1484 0.23,3.3399 -14.97,2.6718 -0.63,-2.539 3.75,-2.7305 -7.57,-37.1016 -3.99,-1.10152 -1.05,-2.0664"
         style="fill:#231f20;fill-opacity:1;fill-rule:nonzero;stroke:none"
         id="path32" />
      <path
         d="m 2865.05,25.0586 1.68,-0.0781 3.35,-10.1719 c -4.39,-5.61719 -8.47,-8.32813 -15.55,-9.82813 -13.68,-2.96094 -26.11,0.12109 -30.16,17.32033 -5.95,18.6992 6.07,26.1406 20.14,30.25 4.3,1.1992 7.22,1.2383 11.83,1.8281 l 2.59,-10.1172 -2.03,-1.2812 c -3.37,4.0781 -8.57,5.3593 -13.68,4.2812 -7.55,-1.9922 -12.29,-10.9219 -9.66,-18.2812 l 22.63,5.1484 1.84,4.0899 2.22,0.582 2.51,-10.5391 -2.33,-0.5117 -2.3,1.4492 -22.31,-5.289 c 0.39,-8.4805 9.02,-14.87895 17.75,-13.1016 5.64,0.9531 11.99,7.0898 11.48,14.25"
         style="fill:#231f20;fill-opacity:1;fill-rule:nonzero;stroke:none"
         id="path34" />
      <path
         d="m 2647.31,118.184 -1.79,-1.5 0.27,-2.672 -19.29,-19.5784 8.55,39.1094 -5.43,7.48 -1.9,-1.863 -0.48,-2.797 -31.53,-21.859 -3.01,1.578 -1.93,-1.672 8.13,-10.547 2.77,2.239 0.31,3.351 21.72,15.539 -8.89,-41.5818 4.21,-4.75 30.73,30.5428 2.62,0.481 1.41,0.91 -6.47,7.59"
         style="fill:#231f20;fill-opacity:1;fill-rule:nonzero;stroke:none"
         id="path36" />
      <path
         d="m 2803.15,46.5117 -0.15,-2.3125 2.31,-1.5586 2.67,-27.0117 -25.36,32.4805 -8.77,0.8711 0.28,-2.6602 1.67,-2.2617 -3.05,-38.43751 -3.22,-1.47265 -0.04,-2.57813 12.72,-0.17187 0.24,3.57031 -2.21,2.40234 1.7,26.48831 L 2808.6,0 l 6.24,0.0585938 -3.44,42.3906062 1.43,2.4024 0.16,1.7187 -9.84,-0.0586"
         style="fill:#231f20;fill-opacity:1;fill-rule:nonzero;stroke:none"
         id="path38" />
      <path
         d="m 2669.74,37.125 1.19,2.6016 3.69,-0.293 25.34,28.9414 -1.25,3.0391 2.03,2.3593 7.85,-3.3281 -1.26,-28.7422 16.23,18.8711 -0.79,1.5 1.38,0.9922 11.38,-4.5898 -0.16,-2.9297 -1.99,-0.961 -5.12,-39.0703 2.79,-3.2187 -0.75,-2.31252 -13.4,5.92192 0.79,2.8203 2.42,0.5781 3.7,30.8086 -23.76,-28.3164 -4.77,1.5664 3.26,35.543 -19.25,-23.0704 1.7,-3.2421 -0.74,-1.7071 -10.51,6.2383"
         style="fill:#231f20;fill-opacity:1;fill-rule:nonzero;stroke:none"
         id="path40" />
      <path
         d="m 2970.99,87.7266 1.55,0.75 6.88,-8.1172 c -0.79,-7.1914 -3.14,-11.5117 -8.53,-16.3711 -10.6,-9.9805 -23.17,-12.8906 -35.68,0.3594 -13.25,14.1093 -6.38,26.6211 4.29,36.6723 3.09,3.07 5.67,4.589 9.46,7.339 l 7.15,-7.57 -1.02,-2.1015 c -5.14,1.8715 -10.24,0.4609 -14.11,-3.0508 -5.97,-5.1679 -5.77,-15.0976 0.26,-20.0781 l 17.69,15.1211 -0.48,4.4101 1.52,1.5782 7.37,-7.2813 -1.68,-1.5781 -2.81,0.0195 -17.79,-16.5195 c 4.45,-7.5195 15.43,-9.1406 22.13,-2.7109 4.3,3.6601 6.43,12.3789 3.8,19.1289"
         style="fill:#231f20;fill-opacity:1;fill-rule:nonzero;stroke:none"
         id="path42" />
      <path
         d="m 3026.63,325.734 v 1.758 l 10.45,2.25 c 5.88,-4.347 8.43,-8.371 10.04,-15.379 3.42,-13.629 -0.3,-26.172 -17.57,-30.832 -18.16,-5.629 -26.42,6.371 -30.18,20.453 -1.2,4.161 -1.27,7.168 -1.99,11.758 l 9.97,2.672 1.31,-2.062 c -3.93,-3.36 -5.26,-8.598 -3.96,-13.7 1.82,-7.679 10.49,-12.078 17.88,-9.257 l -5.04,22.628 -4.21,1.719 -0.57,2.231 10.74,2.89 0.46,-1.91 -1.52,-2.922 5.68,-22.758 c 8.78,0.27 15.37,9.391 13.54,18.071 -1.13,5.527 -7.8,11.578 -15.03,12.39"
         style="fill:#231f20;fill-opacity:1;fill-rule:nonzero;stroke:none"
         id="path44" />
      <path
         d="m 2992.66,334.723 c -4.47,9.332 -6.99,23.039 5.19,26.14 10.12,2.7 16.13,-6.949 17.56,-14.699 z m 39.67,20.129 -11.74,-5.86 c -0.03,9.02 2.32,19.121 1.35,24.242 -1.71,7.329 -4,9.297 -9.87,14.168 l -1.71,-1.347 c 1.71,-2.981 2.4,-2.961 3.54,-7.383 1.56,-6.238 1.38,-10.27 -0.16,-16.52 -3.38,6.391 -10.87,8.969 -18.87,6.641 -9.87,-2.629 -15.54,-12.891 -11.12,-22.211 l 9.85,-22.82 3.34,1.461 0.83,2.14 35.23,18.121 2.5,-1.66 1.91,0.61 -5.08,10.418"
         style="fill:#231f20;fill-opacity:1;fill-rule:nonzero;stroke:none"
         id="path46" />
      <path
         d="m 3006.74,233.977 0.17,36.519 -3.02,9.91 12.53,-7.929 c -1.26,-0.321 -2.33,-0.75 -3.09,-1.36 -1.3,-1.32 -1.3,-6.769 -1.53,-14.969 l 40.18,0.54 0.77,1.761 2.08,-0.09 0.07,-14.382 -1.17,0.019 -1.77,3.383 -39.84,-0.66 c 0.04,-4.34 -0.59,-10.789 0.62,-11.762 0.47,-0.437 1.25,-0.91 2.3,-1.269 l -10.52,-6.961 2.22,7.25"
         style="fill:#231f20;fill-opacity:1;fill-rule:nonzero;stroke:none"
         id="path48" />
      <path
         d="m 3048.85,199.316 3.11,16.43 -1.87,0.141 -2.83,-3.321 -38.76,6.852 -0.35,2.859 -3.32,0.282 -2.05,-15.102 2.44,-0.262 2.44,2.981 37.75,-6.5 1.31,-3.481 2.13,-0.879"
         style="fill:#231f20;fill-opacity:1;fill-rule:nonzero;stroke:none"
         id="path50" />
      <path
         d="m 3031.74,190.762 1.68,1.801 9.12,-4.192 c 1.89,-7.437 1.58,-12.738 -1.67,-19.551 -6.53,-12.726 -16.05,-21.25 -34.13,-13.816 -17.56,7.906 -15.61,22.387 -9.71,35.937 1.8,4.172 3.57,6.45 5.84,10.379 l 10.06,-3.84 -0.76,-2.718 c -5.31,-0.258 -9.12,-2.68 -11.39,-7.36 -3.75,-7.519 2.09,-14.25 9.05,-19.679 6.92,-5.25 22.01,-2.993 25.95,4.82 2.44,5.25 1.03,13.02 -4.04,18.219"
         style="fill:#231f20;fill-opacity:1;fill-rule:nonzero;stroke:none"
         id="path52" />
      <path
         d="m 3018.43,121.375 8.35,14.73 -1.86,0.051 -3.52,-2.031 -35.79,19.602 0.71,2.808 -3.07,1.289 -5.6,-13.48 2.28,-1.16 3.37,2.07 33.33,-18.707 0.29,-3.594 1.51,-1.578"
         style="fill:#231f20;fill-opacity:1;fill-rule:nonzero;stroke:none"
         id="path54" />
      <path
         d="m 2990.72,84.2852 23.26,26.6208 -4.99,12.797 -3.3,-3.348 c 0,0 1.14,-5.332 0.7,-8.55 -0.99,-6.442 -9.86,-14.18 -9.86,-14.18 l -30.2,25.012 1.3,3.207 -2.72,1.832 -10.41,-13.129 2.8,-1.942 3.36,1.52 29.35,-24.5508 -0.59,-3.4375 1.3,-1.8515"
         style="fill:#231f20;fill-opacity:1;fill-rule:nonzero;stroke:none"
         id="path56" />
      <path
         d="m 2909.86,22.9023 12.58,6.8204 -1.27,1.5312 -3.31,0.5 -8.96,18.2109 c 0,0 7.47,5.379 12.24,6.3985 2.38,0.5586 6.15,0.5078 6.15,0.5078 l -4.56,9.2227 c 0,0 -2.17,-2.8125 -3.78,-4.3594 -3.6,-3.4297 -12.7,-6.5508 -12.7,-6.5508 l -6.35,13.3008 c 0,0 8.89,6.3281 14.62,8.039 1.85,0.5508 5.45,1.2383 5.45,1.2383 0,0 0.17,2.5196 0.68,3.9414 0.82,2.4805 3.13,6 3.13,6 l -36.9,-21.582 0.76,-2.7266 3.67,0.0391 17.79,-35.3203 -0.83,-3.0508 1.59,-2.1602"
         style="fill:#231f20;fill-opacity:1;fill-rule:nonzero;stroke:none"
         id="path58" />
      <path
         d="m 2938.26,381.133 -109.31,17.18 c 1.36,-3.329 2.2,-7.118 2.2,-10.93 0,-15.629 -12.59,-28.238 -28.35,-28.238 l -0.96,0.039 h -0.04 l -0.86,-0.039 c -15.55,0 -27.61,12.609 -27.61,28.238 0,3.812 0.8,7.601 2.11,10.93 l -108.77,-17.18 c -3.14,18.519 -4.72,35.703 -4.72,51.051 0,5.55 0.28,10.679 0.66,15.902 h 65.02 c 17.9,0 19.38,-1.852 20.2,-2.691 1.2,-1.11 1.51,-4.082 -0.15,-5.262 -3.88,-2.43 -9.85,-5.309 -9.85,-14.059 v -0.48 c 0,-7.031 6.2,-9.649 21.03,-15.539 4.25,-1.621 19.2,-7.532 19.2,-7.532 l 3.1,1.782 c 5.2,2.668 16.29,10.121 16.29,22.859 0,1.649 -0.2,2.941 -0.4,4.07 -0.41,1.719 -1.11,3.239 -1.85,4.5 v 0.11 c -2.34,4.39 -5.18,5.699 -5.18,5.699 0,0 1.39,6.043 10.13,6.82 l 0.01,-0.058 0.99,0.16 h 0.69 c 4.37,0 7.31,-3.621 7.31,-7.91 0,-5.332 -3.39,-6.422 -3.39,-13.391 -0.11,-12.738 11.02,-20.191 16.16,-22.859 l 3.36,-1.782 c 0,0 15.25,5.911 19.41,7.532 15.01,5.89 21.04,8.508 21.04,15.539 v 0.48 c 0,8.75 -5.85,11.629 -9.65,14.059 -1.94,1.18 -1.6,4.152 -0.24,5.262 0.86,0.839 2.4,2.691 19.99,2.691 h 66.57 c 0.4,-5.223 0.74,-10.352 0.74,-15.902 0,-15.348 -1.7,-32.532 -4.88,-51.051 m -9.81,-43.481 v 0 l -92.28,42.161 c 32.43,-5.028 79.54,-12.43 98.75,-15.411 -1.84,-8.777 -4,-17.476 -6.47,-26.75 m -101.1,27.493 58.42,-27.493 h -40.14 z m 82.95,-84.379 h -70.07 v 39.789 h 83.39 c -3.93,-12.813 -8.31,-26.141 -13.32,-39.789 m -99.73,56.886 v 21.641 l 14.41,-21.641 z m -31.62,0 14.36,21.641 v -21.641 z m 122.3,-80.5 c -4.58,-11.308 -9.33,-22.226 -14.3,-33.238 h -55.3 -8.57 v -118.68 c -6.3,-9.1285 -11.86,-16.4606 -16.51,-21.4918 -1.27,-1.3477 -3.38,-3.4688 -4.73,-4.4688 -1.21,1 -3.13,3.1211 -4.51,4.4688 -4.66,5.0312 -10.25,12.3633 -16.59,21.4918 v 118.68 h -8.09 -54.95 c -4.98,11.012 -9.75,21.93 -14.14,33.238 -0.86,2.211 -1.77,4.34 -2.62,6.5 h 79.8 v 56.903 h 21.06 0.04 21.24 v -56.903 h 80.75 c -0.81,-2.16 -1.69,-4.289 -2.58,-6.5 m -61.02,-125 v 74.582 h 39.13 c -13.17,-27.82 -26.66,-53.539 -39.13,-74.582 m -76.03,0 c -12.5,21.043 -26.07,46.762 -39.15,74.582 h 39.15 z m -82.74,188.403 h 82.74 v -39.789 h -69.68 c -5.05,13.648 -9.19,26.976 -13.06,39.789 m 95.42,44.59 -18.25,-27.493 h -39.68 z m -100.36,-27.493 c -2.53,9.274 -4.64,17.973 -6.51,26.75 19.03,2.981 65.69,10.383 98.23,15.411 z m 125.28,135.161 h 136.46 c 0.68,-2.559 1.31,-5.321 1.77,-8.079 h -64.2 c -27.2,0 -38.84,-6.609 -38.84,-22.492 0,-4.879 2.71,-10.156 7.12,-13.898 -3.12,-1.25 -16.13,-5.899 -18.05,-6.739 -1.55,1.739 -4.47,4.528 -4.88,8.848 1.28,2.11 4.1,6.43 4.1,12.692 0,9.75 -6.72,19.64 -23.81,20.128 -7.9,-0.3 -12.89,-2.621 -16.89,-5.8 l -0.7,-0.778 c -7.09,-1.953 -11.57,-6.871 -11.57,-13.191 v -6.77 c 0,0 3.13,-0.339 4.92,-1 2.28,-1.019 3.17,-2.199 3.88,-3.171 1.95,-2.79 0.31,-9.02 -3.63,-10.958 -1.84,0.84 -14.91,5.489 -18.09,6.739 4.47,3.742 7.37,9.019 7.37,13.898 0,15.883 -11.76,22.492 -39.13,22.492 h -62.77 c 0.59,2.758 1.06,5.52 1.82,8.079 z m -87.24,57.082 c 0,5.25 1.7,12.097 16.87,12.097 12.35,0 17.32,-1.879 19.42,-3.406 1.03,-0.652 2.41,-1.684 2.41,-6.91 0,0 0,-27.203 0.02,-41.703 h -38.72 z m 68.87,47.429 v -5.75 c -10.1,-3.058 -18.61,-9.211 -24.37,-17.898 -4.67,2.84 -10.52,4.137 -16.48,4.738 11.63,9.52 26.04,15.969 40.85,18.91 m -11.07,33.399 h 24.48 v 24.461 h 4.96 0.04 5.28 v -24.461 h 24.89 v -10.84 h -24.89 v -24.848 h -5.28 -0.04 -4.96 v 24.848 h -24.48 z m 61.62,-79.047 v -41.703 h -63.59 l -0.05,41.703 c 0,11.969 7.93,25.789 31.46,25.789 h 0.04 c 23.95,0 32.14,-13.82 32.14,-25.789 m 27.8,26.738 c -5.99,-0.601 -11.71,-1.898 -16.52,-4.738 -5.62,8.687 -14.12,14.84 -24.89,17.898 v 5.75 c 15.4,-2.941 29.85,-9.39 41.41,-18.91 m 28.45,-28.519 v -39.922 h -39.14 v 41.703 c 0,5.226 1.42,6.258 2.32,6.91 2.14,1.527 7.25,3.406 19.61,3.406 15.37,0 17.21,-6.847 17.21,-12.097 m 62.69,-45.79 -2.07,5.868 h -43.43 v 39.922 c 0,11.039 -5.57,22.66 -20.32,27.179 -10.68,12.918 -25.32,23.668 -41.82,30.559 v 36.422 h -24.91 v 24.539 h -18.53 -0.04 -18.37 v -24.539 h -24.39 v -36.422 c -16.46,-6.891 -31.32,-17.641 -41.62,-30.559 -14.53,-4.519 -20.13,-16.14 -20.13,-27.179 v -39.922 h -43.28 l -1.87,-5.868 c -5.24,-15.902 -7.55,-33.32 -7.55,-52.32 0,-58.762 21.75,-127.512 43.03,-181.082 32.28,-81 74.95,-154.328 97.17,-178.7499 5.28,-5.289 9.54,-9.9375 16.58,-10.2304 h 0.43 0.04 0.5 c 7.24,0.2929 11.58,4.9414 16.75,10.2304 22.76,24.4219 65.76,97.7499 98.08,178.7499 21.45,53.57 43.12,122.32 43.12,181.082 0,19 -2.01,36.418 -7.37,52.32"
         style="fill:#231f20;fill-opacity:1;fill-rule:nonzero;stroke:none"
         id="path60" />
      <path
         d="m 47.2305,353.137 -0.2696,-28.942 v -8.918 l 0.2696,-6.629 c -0.2696,-4.839 0.7187,-5.73 4.9883,-5.73 15.5117,0 24.5195,1.848 30.0312,6.23 6.7188,5.598 10.6719,14.598 10.6719,24.059 0,13.66 -7.3125,24.059 -19.0235,27.231 -4.7265,1.23 -11.4296,1.699 -20.4687,1.699 -5.25,0 -6.1992,-0.469 -6.1992,-3.871 z m -0.2696,-80.391 c 0,-12.617 0.2696,-33.848 0.5274,-41.867 0.2305,-5.844 2.1133,-7.742 9.9726,-9.691 5.2579,-1.243 6.25,-1.961 6.25,-5.641 v -4.84 c 0,-2.91 -0.7421,-3.922 -3.1718,-3.922 -1.6289,0 -5.461,0.231 -9.4805,0.461 -4.5586,0.301 -11.2305,0.551 -18.5977,0.551 -8.8203,0 -14.789,-0.25 -19.582,-0.551 -4.07812,-0.23 -8.08984,-0.461 -9.55077,-0.461 C 0.730469,206.785 0,207.797 0,210.707 v 4.84 c 0,3.68 0.941406,4.398 6.42188,5.641 7.90622,1.949 9.79692,3.847 10.01952,9.691 0.2578,9.476 0.4883,26.816 0.4883,41.867 v 39.301 c 0,15.082 -0.2305,32.59 -0.4883,42.269 -0.2226,6.122 -2.1133,7.821 -10.01952,9.77 C 0.941406,365.297 0,366.027 0,369.656 v 4.903 c 0,2.91 0.730469,3.839 2.85938,3.839 2.37109,0 5.9414,-0.21 10.01952,-0.453 4.293,-0.257 9.793,-0.476 17.4024,-0.476 11.9296,0 11.9296,0 34.0898,0.719 4.8008,0.21 9.0586,0.21 12.918,0.21 16.6015,0 27.8129,-3.601 35.5309,-12.16 7.371,-7.461 11.871,-18.672 11.871,-29.582 0,-18.758 -11.441,-35.937 -26.9996,-40.32 -5.25,-1.438 -5.7031,-1.68 -5.7031,-2.918 l 0.9336,-1.43 c 1.6797,-2.922 3.1172,-5.39 3.8398,-7.55 5.0273,-11.45 20.7893,-39.481 29.1363,-50.879 6.672,-9.282 9.782,-11.911 16.903,-13.614 4.57,-1.218 4.801,-1.449 4.801,-5.59 v -4.109 c 0,-2.187 -1.461,-3.461 -3.832,-3.461 h -1.899 c -5.23,0.231 -13.812,0.461 -19.551,0.461 -3.59,0 -8.539,-0.23 -14.019,-0.461 h -3.672 c -4.559,0 -4.559,0 -10.2501,14.863 -2.1094,5.368 -18.3476,39.719 -26.8672,57.668 -4.082,8.789 -5.0429,9.493 -10.7617,9.493 h -1.6719 l -1.6484,-0.243 -3.8281,0.243 c -1.4219,0 -2.6407,-1.723 -2.6407,-4.371 v -11.692"
         style="fill:#b72021;fill-opacity:1;fill-rule:nonzero;stroke:none"
         id="path62" />
      <path
         d="m 230.695,255.926 c 0,3.242 -0.199,3.941 -1.84,3.941 l -1.699,-0.219 -2.629,-0.48 c -13.082,-2.512 -17.41,-3.5 -22.39,-6.422 -6.93,-3.891 -10.051,-8.98 -10.051,-15.558 0,-8.25 5.492,-13.629 13.609,-13.629 6.942,0 15.063,3.687 20.274,9.039 3.566,3.847 4.726,7.757 4.726,16.488 z m -58.527,58.601 c 0.687,6.539 2.348,8.489 9.789,10.391 8.32,2 21.602,3.687 30.68,3.687 30.07,0 44.191,-10.937 44.191,-34.41 l -0.75,-44.328 c 0,-24.308 0,-24.601 2.828,-27.262 2.18,-1.699 4.532,-2.41 10.262,-2.91 4.789,-0.468 6.219,-1.199 6.219,-4.148 v -3.871 c 0,-2.688 -0.731,-3.18 -5.02,-4.129 l -28.351,-4.789 c -1.411,-0.25 -3.368,-0.473 -5.239,-0.473 -2.25,0 -3.57,0.961 -4.058,3.582 -0.66,1.68 -1.34,7.789 -1.09,9.68 0,4.379 -0.473,6.379 -1.621,6.379 l -1.653,-1.02 c -1.457,-1.468 -11.218,-8.519 -14.57,-10.429 -6.398,-3.872 -15.187,-6.301 -23.508,-6.301 -15.05,0 -26.961,13.312 -26.961,30.59 0,8.293 2.672,18.761 6.012,23.429 1.86,2.653 2.141,2.891 14.738,5.352 l 31.43,6.301 c 13.59,2.898 15.199,4.09 15.199,11.418 v 4.14 c 0,16.551 -6.168,22.789 -22.117,22.789 -10.242,0 -23.781,-3.898 -32.871,-9.187 -1.879,-1.231 -2.852,-1.492 -3.539,-1.492 -1.172,0 -1.672,1.05 -1.672,2.922 v 1.519 l 1.672,12.57"
         style="fill:#b72021;fill-opacity:1;fill-rule:nonzero;stroke:none"
         id="path64" />
      <path
         d="m 312.773,269.598 c 0,-26.34 11.45,-45.051 28.161,-45.051 16.91,0 25.101,14.348 25.101,43.117 0,15.082 -1.672,25.012 -5.301,31.844 -4.058,7.5 -11.242,12.129 -19.57,12.129 -16.699,0 -28.391,-17.211 -28.391,-42.039 m 74.461,120.07 c 1.192,0.246 2.289,0.246 2.789,0.246 2.129,0 3.34,-1.457 3.34,-4.379 l -1.687,-73.898 v -43.282 c 0,-31.167 0.289,-39.148 1.918,-42.328 2.172,-4.632 3.851,-5.632 14.07,-6.589 2.141,0 3.371,-0.942 3.371,-2.672 v -4.641 c 0,-2.379 -0.73,-3.129 -5.012,-3.848 l -30.73,-5.992 c -1.91,-0.269 -3.348,-0.5 -4.289,-0.5 -1.918,0 -2.641,1.223 -2.84,4.332 l -0.738,10.418 c -0.442,5.852 -0.442,6.07 -2.141,6.07 l -2.14,-1.417 c -1.911,-1.961 -7.981,-7.063 -12.231,-10.204 -7.129,-4.867 -13.351,-6.808 -21.211,-6.808 -26.238,0 -44.98,24.262 -44.98,58.121 0,39.41 22.371,66.308 54.769,66.308 6.422,0 18.762,-2.687 21.742,-4.628 l 1.661,-0.961 c 0.968,0 1.96,1.898 1.96,3.898 0,0.211 0,0.211 -0.281,4.402 l -0.211,25.95 c 0,12.691 -0.73,13.621 -10.808,15.339 -4.532,0.5 -5.5,1.211 -5.5,4.583 v 4.257 c 0,2.422 0.968,3.172 4.781,3.61 l 34.398,4.613"
         style="fill:#b72021;fill-opacity:1;fill-rule:nonzero;stroke:none"
         id="path66" />
      <path
         d="m 467.523,289.801 c -2.609,-6.571 -3.832,-16.34 -3.832,-31.602 0,-18.308 0.743,-24.898 2.633,-29.261 2.617,-5.09 10.508,-9.227 17.469,-9.227 18.512,0 32.34,19.906 32.34,46.488 0,25.52 -10.5,42.25 -26.488,42.25 -9.012,0 -17.852,-7.25 -22.122,-18.648 m -30.289,24.949 c 0,20.91 -0.25,45.211 -0.73,49.59 -0.449,5.609 -3.09,7.777 -9.723,8.527 -6.019,0.461 -7.437,1.453 -7.437,4.332 v 3.739 c 0,2.23 0.949,2.929 4.051,3.41 l 34.808,5.101 4.559,0.762 c 1.672,0 2.84,-1.75 2.84,-4.16 0,-0.723 0,-1.981 -0.25,-3.403 -0.207,-5.679 -0.438,-12.699 -0.7,-32.398 0,-15.07 -0.218,-26.5 -0.461,-33.59 l -0.269,-4.09 v -1.722 l 1.223,-1.45 c 1.179,0 4.027,2.653 9.5,8.5 7.339,8.301 13.136,10.711 24.847,10.711 27.391,0 44.781,-21.601 44.781,-56.32 0,-40.398 -25.742,-68.109 -63.64,-68.109 -12.629,0 -29.789,4.32 -40.059,10.418 -3.121,1.941 -4.301,3.902 -4.301,8.011 v 2.661 c 0.461,20.949 0.711,46.019 0.961,76.179 v 13.301"
         style="fill:#b72021;fill-opacity:1;fill-rule:nonzero;stroke:none"
         id="path68" />
      <path
         d="m 591.832,267.902 c 0,-25.832 13.488,-45.07 32.461,-45.07 16.977,0 30.027,18.02 30.027,40.957 0,27.473 -13.359,46.844 -32.187,46.844 -17.703,0 -30.301,-17.961 -30.301,-42.731 m 82.289,35.469 c 5.512,-9.738 8.609,-21.641 8.609,-34.012 0,-16.367 -5.468,-32.918 -15.07,-44.566 -10.918,-13.594 -27.16,-20.613 -47.629,-20.613 -34.09,0 -56.269,23.062 -56.269,58.871 0,18.961 6.187,35.961 17.41,47.789 11.109,12.172 24.558,17.769 43.121,17.769 22.668,0 40.547,-9.027 49.828,-25.238"
         style="fill:#b72021;fill-opacity:1;fill-rule:nonzero;stroke:none"
         id="path70" />
      <path
         d="m 814.488,269.598 c 0.262,-22.442 0.461,-35.762 0.93,-39.973 0.992,-6.488 3.371,-8.23 12.402,-9.43 3.828,-0.488 4.539,-1.23 4.539,-4.129 v -3.402 c 0,-2.918 -0.711,-3.668 -4.031,-4.168 l -32.449,-4.32 c -1.668,-0.27 -3.07,-0.469 -3.359,-0.469 -2.801,0 -2.801,0 -4.512,16.688 -0.238,3.71 -0.91,5.39 -2.391,5.39 -0.679,0 -1.828,-0.75 -4.949,-3.871 -16.199,-15.137 -20.938,-17.738 -33.848,-17.738 -9.043,0 -18.242,2.429 -24.359,6.539 -7.633,4.832 -10.941,13.133 -10.941,26.473 0,1.937 0,6.07 0.23,10.468 v 12.219 21.391 c 0,28.379 -0.762,30.519 -10.27,31.5 -5.48,0.492 -6.679,1.242 -6.679,3.89 v 4.16 c 0,2.93 0.719,3.379 4.078,3.879 l 34.851,3.41 c 2.399,0.219 4.047,0.5 4.309,0.5 1.641,0 2.34,-1.007 2.34,-2.898 0,-1.242 0,-3.199 -0.219,-5.32 -0.949,-11.492 -1.422,-26.969 -1.422,-38.653 v -18.949 c 0,-21.719 0.473,-25.34 4.27,-30.68 2.851,-4.167 8.133,-6.32 14.793,-6.32 11.187,0 21.226,5.34 25.508,13.61 3.039,5.57 3.789,11.679 3.789,30.203 v 11.879 c 0,9.308 -0.469,22.148 -1.02,24.48 -0.937,4.43 -3.23,6.348 -9.219,7.09 -5.48,0.48 -6.671,1.211 -6.671,3.609 v 4.41 c 0,2.68 0.73,3.399 4.062,3.629 l 34.277,3.629 c 1.411,0.281 2.852,0.281 3.813,0.281 2.41,0 3.078,-0.718 3.078,-2.898 l -0.23,-6.391 c -0.239,-6.269 -0.239,-6.269 -0.438,-16.878 -0.262,-4.403 -0.262,-9.762 -0.262,-15.84 v -17"
         style="fill:#b72021;fill-opacity:1;fill-rule:nonzero;stroke:none"
         id="path72" />
      <path
         d="m 873.508,269.598 c 0,-26.34 11.398,-45.051 28.058,-45.051 17.34,0 25.68,14.348 25.68,43.117 0,15.082 -1.66,25.012 -5.269,31.844 -4.289,7.5 -11.809,12.129 -20.161,12.129 -16.64,0 -28.308,-17.211 -28.308,-42.039 m 74.918,120.07 c 1.219,0.246 2.422,0.246 2.929,0.246 2.122,0 3.34,-1.457 3.34,-4.379 l -1.711,-73.898 v -43.282 c 0,-31.167 0.25,-39.148 1.883,-42.328 2.149,-4.632 3.778,-5.632 14.117,-6.589 2.102,0 3.274,-0.942 3.274,-2.672 v -4.641 c 0,-2.379 -0.703,-3.129 -4.992,-3.848 l -30.75,-5.992 c -1.911,-0.269 -3.309,-0.5 -4.27,-0.5 -1.891,0 -2.629,1.223 -2.859,4.332 l -0.731,10.418 c -0.468,5.852 -0.468,6.07 -2.121,6.07 l -2.16,-1.417 c -1.93,-1.961 -8.34,-7.063 -12.758,-10.204 -7.172,-4.867 -13.351,-6.808 -21.242,-6.808 -26.148,0 -44.629,24.262 -44.629,58.121 0,39.41 22.031,66.308 54.43,66.308 6.429,0 19.179,-2.687 22.269,-4.628 l 1.68,-0.961 c 0.949,0 1.891,1.898 1.891,3.898 0,0.211 0,0.211 -0.2,4.402 l -0.23,25.95 c 0,12.691 -0.731,13.621 -11.371,15.339 -4.508,0.5 -5.457,1.211 -5.457,4.583 v 4.257 c 0,2.422 0.949,3.172 4.75,3.61 l 34.918,4.613"
         style="fill:#b72021;fill-opacity:1;fill-rule:nonzero;stroke:none"
         id="path74" />
      <path
         d="m 1062.43,312.051 c 0,15.07 -0.27,32.59 -0.5,42.269 -0.23,6.11 -2.14,7.821 -10,9.77 -5.51,1.211 -6.45,1.941 -6.45,5.57 v 4.91 c 0,2.899 0.7,3.828 3.12,3.828 1.37,0 5.73,-0.207 9.78,-0.457 4.51,-0.25 11.17,-0.472 18.56,-0.472 8.76,0 14.72,0.222 19.48,0.472 3.65,0.25 7.7,0.457 9.14,0.457 2.37,0 3.12,-0.929 3.12,-3.828 v -4.91 c 0,-3.629 -1.01,-4.359 -6.21,-5.57 -7.7,-1.949 -9.42,-3.66 -9.61,-9.77 -0.2,-7.929 -0.47,-29.621 -0.47,-42.269 V 286.41 c 0,-27.922 1.19,-38.512 5.39,-46.301 6.11,-11.668 19.46,-18.461 36.13,-18.461 20.04,0 34.1,8.25 39.31,23.122 3.13,9.171 3.4,12.421 3.4,42.789 v 24.492 c 0,14.359 -0.27,33.078 -0.52,42.269 -0.19,6.11 -1.87,7.821 -9.95,9.77 -5.52,1.211 -6.49,1.941 -6.49,5.57 v 4.91 c 0,2.899 0.78,3.828 3.14,3.828 1.66,0 5.72,-0.207 9.78,-0.457 4.5,-0.25 9.21,-0.472 13.5,-0.472 5.26,0 9.53,0.222 14.31,0.472 4.04,0.25 8.09,0.457 9.76,0.457 2.41,0 3.1,-0.929 3.1,-3.828 v -4.91 c 0,-3.629 -0.91,-4.359 -6.43,-5.57 -8.07,-1.949 -9.78,-3.66 -10.02,-9.77 -0.22,-8.242 -0.5,-28.898 -0.5,-42.269 V 288.57 c 0,-28.699 -0.46,-35.582 -2.36,-43.8 -6.18,-26.731 -28.82,-40.59 -66.7,-40.59 -29.1,0 -49.57,9.48 -58.4,26.949 -5.03,10.199 -6.41,21.621 -6.41,56.43 v 24.492"
         style="fill:#b72021;fill-opacity:1;fill-rule:nonzero;stroke:none"
         id="path76" />
      <path
         d="m 1221.09,319.137 c 0,3.66 0.42,4.371 3.23,4.847 l 33.84,4.133 c 2.18,0.219 3.83,0.5 4.07,0.5 1.92,0 3.12,-1.691 3.35,-4.633 0.23,-1.957 0.71,-13.347 0.71,-14.589 0.22,-2.911 1.18,-5.098 2.38,-5.098 l 2.64,1.668 2.35,2.68 4.56,4.621 c 11.37,12.441 17.33,15.351 31.16,15.351 17.15,0 29.81,-6.59 34.37,-17.98 2.08,-5.871 2.08,-5.871 2.08,-41.282 v -7.988 c 0,-14.199 0.2,-28.062 0.4,-32.922 0.4,-5.129 1.81,-6.519 8.97,-8.738 7.16,-2.223 7.39,-2.449 7.39,-5.859 v -3.832 c 0,-2.469 -0.68,-3.231 -2.6,-3.231 h -1.69 c -6.19,0.473 -16.99,0.762 -25.76,0.762 -9.08,0 -20.31,-0.289 -26.47,-0.762 h -1.72 c -1.92,0 -2.62,1.012 -2.62,3.231 v 3.832 c 0,3.41 0.24,3.636 7.38,5.859 7.19,2.219 8.58,3.609 9.08,8.738 0.21,5.629 0.45,18.993 0.45,32.922 v 7.988 c 0,15.29 -0.69,21.903 -2.61,26.993 -2.61,6.57 -9.03,10.136 -17.83,10.136 -9.8,0 -18.81,-4.527 -24.28,-12.296 -4.08,-5.622 -5.07,-10.961 -5.07,-26.524 v -6.297 c 0,-14.679 0.27,-27.293 0.52,-32.922 0.47,-5.129 1.94,-6.519 8.85,-8.738 7.08,-2.449 7.31,-2.449 7.31,-5.859 v -3.832 c 0,-2.219 -0.72,-3.231 -2.66,-3.231 h -1.65 c -6.12,0.473 -16.83,0.762 -25.92,0.762 -9.02,0 -20.74,-0.289 -26.46,-0.762 h -1.67 c -1.9,0 -2.61,1.012 -2.61,3.231 v 3.832 c 0,3.41 0.26,3.636 7.4,5.859 7.12,2.219 8.57,3.609 9.06,8.738 0.21,5.11 0.48,18.243 0.48,32.922 v 8.481 c 0,11.879 -1.45,30.879 -2.84,35.168 -1.25,4.129 -3.62,5.621 -11.01,6.058 -5.52,0.551 -6.56,0.973 -6.56,3.192 v 4.871"
         style="fill:#b72021;fill-opacity:1;fill-rule:nonzero;stroke:none"
         id="path78" />
      <path
         d="m 1428.57,364.086 c 0,-9.988 -8.32,-18.012 -18.8,-18.012 -10.24,0 -18.64,7.801 -18.64,17.821 0,10.41 7.87,17.043 19.57,17.043 10.48,0 17.87,-6.633 17.87,-16.852 m -29.8,-82.82 c 0,28.672 -0.49,30.359 -10.26,31.511 -5.49,0.489 -6.68,1.231 -6.68,3.649 v 4.39 c 0,2.7 0.75,3.379 4.07,3.661 l 34.1,3.64 1.95,0.219 1.89,0.281 c 2.11,0 3.12,-1.691 3.12,-4.633 0,-0.468 0,-0.468 -0.27,-9.468 -0.23,-4.129 -0.51,-27.68 -0.51,-41.051 v -12.098 c 0,-14.211 0.28,-27.07 0.51,-32.922 0.46,-5.129 1.88,-6.519 8.81,-8.738 7.16,-2.23 7.39,-2.461 7.39,-5.859 v -3.832 c 0,-2.219 -0.73,-3.231 -2.6,-3.231 h -1.69 c -6.21,0.473 -16.91,0.762 -26.04,0.762 -9.03,0 -20.43,-0.289 -26.42,-0.762 h -1.68 c -2.14,0 -2.63,0.762 -2.63,3.231 v 3.832 c 0,3.398 0,3.398 7.42,5.859 7.4,2.418 8.61,3.609 9.03,8.738 0.25,6.321 0.49,17.5 0.49,32.922 v 19.899"
         style="fill:#b72021;fill-opacity:1;fill-rule:nonzero;stroke:none"
         id="path80" />
      <path
         d="m 1572.67,321.066 c 0,-3.402 0,-3.402 -4.55,-4.64 -3.09,-1.418 -4.54,-3.66 -8.56,-14 -2.62,-6.821 -2.62,-6.821 -23.12,-56.969 -7.65,-18.93 -9.32,-23.332 -10.99,-27.973 -2.1,-5.816 -2.1,-6.027 -3.07,-7.468 -0.73,-1.211 -1.65,-1.739 -4.98,-2.219 -2.19,-0.262 -2.9,-0.262 -11.27,-1.68 l -2.63,-0.25 c -2.33,0 -2.59,0.25 -5.23,7.988 -3.13,8.532 -5.25,13.872 -16.22,43.852 -11.35,31.359 -15.73,43.738 -19.77,53.141 -1.67,4.16 -2.16,4.429 -7.66,6.32 -1.39,0.496 -2.12,1.969 -2.12,3.898 v 4.352 c 0,2.469 0.98,3.187 4.07,3.187 0.72,0 0.72,0 11.59,-0.5 2.28,-0.218 6.62,-0.218 12.23,-0.218 11.23,0 18.1,0.218 25.27,0.718 h 2.89 c 2.36,0 3.26,-0.718 3.26,-3.187 v -4.352 c 0,-3.171 -0.19,-3.171 -6.63,-4.859 -6.91,-1.691 -9.56,-3.441 -9.56,-6.812 0,-1.2 0.26,-2.899 1.01,-4.868 1.17,-3.562 2.34,-7.23 3.31,-10.902 l 5.95,-19.168 c 7.4,-23.883 12.41,-39.191 12.91,-39.191 0.24,0 0.47,1.179 0.92,2.652 l 1.01,3.398 2.09,6.579 c 1.22,3.902 2.91,8.519 4.3,13.472 l 6.92,18.93 c 7.39,21.148 9.33,27.66 9.33,30.34 0,2.89 -3.81,5.57 -9.8,6.769 -2.86,0.789 -3.59,1.469 -3.59,3.66 v 4.352 c 0,2.18 0.97,3.187 2.88,3.187 0.71,0 1.42,0 2.6,-0.269 2.87,-0.231 12.67,-0.449 17.45,-0.449 4.46,0 9.96,0.218 14.97,0.718 h 2.18 c 1.87,0 2.61,-0.718 2.61,-3.187 v -4.352"
         style="fill:#b72021;fill-opacity:1;fill-rule:nonzero;stroke:none"
         id="path82" />
      <path
         d="m 1620.1,287.09 10.96,1.012 c 4.31,0.23 16.01,1.168 20.22,1.929 3.66,0.211 5.05,1.692 5.05,4.871 0,4.368 -1.68,9.629 -4.54,13.547 -2.85,3.864 -7.6,6.071 -14.07,6.071 -7.63,0 -15.23,-3.68 -19.55,-9.27 -3.8,-4.527 -6.68,-11.629 -6.68,-15.711 0,-1.988 1,-2.719 3.37,-2.719 z m -4.04,-11.867 c -8.83,0 -9.77,-0.762 -9.77,-9.032 0,-23.128 15.01,-40.402 35.53,-40.402 11.89,0 29.09,5.832 36.9,12.41 l 0.92,0.692 c 0.73,0 1.45,-0.969 1.45,-2.2 0,-3.628 -2.21,-19.66 -2.69,-21.39 -0.65,-1.449 -3.22,-2.91 -9.88,-5.551 -8.62,-3.437 -20.06,-5.578 -30.05,-5.578 -34.8,0 -58.51,24.008 -58.51,58.609 0,37.649 25.09,65.821 59.71,65.821 28.16,0 43.54,-16.039 43.54,-44.891 0,-6.59 -2.62,-8.488 -11.59,-8.488 h -55.56"
         style="fill:#b72021;fill-opacity:1;fill-rule:nonzero;stroke:none"
         id="path84" />
      <path
         d="m 1702.98,317.898 c 0,3.633 0.73,4.364 4.3,4.891 l 34.6,5.32 1.96,0.219 1.85,0.281 c 1.72,0 2.85,-1.687 2.85,-4.14 l -0.18,-10.668 c 0,-10.43 0.18,-12.102 2.11,-12.102 0.77,0 2.84,1.672 4.54,3.781 3.57,4.168 3.57,4.168 9.3,10.731 6.7,7.539 9.08,9.211 15.9,10.91 3.61,0.988 7.16,1.488 11.5,1.488 6.2,0 8.8,-1.687 8.57,-5.359 v -0.461 l -0.98,-17.078 c -0.22,-4.27 -1.23,-5.973 -3.33,-5.973 l -2.19,0.5 c -2.83,0.961 -8.33,1.461 -13.8,1.461 -8.76,0 -15.67,-2.418 -20.21,-6.801 -5.44,-5.628 -6.46,-10.457 -6.46,-34.539 v -10.488 l 0.53,-15.582 c 0.23,-7.988 0.74,-10.019 4.03,-11.687 1.9,-0.954 2.18,-0.954 12.41,-3.372 7.28,-1.742 7.56,-1.742 7.56,-5.109 v -3.41 c 0,-2.441 -1.18,-3.93 -3.16,-3.93 h -1.06 c -6.92,0.239 -25.99,0.758 -35.54,0.758 -7.62,0 -18.77,-0.289 -24.39,-0.758 h -1.66 c -1.9,0 -2.61,1.02 -2.61,3.231 v 3.84 c 0,3.386 0,3.386 7.05,5.847 7.31,2.422 8.52,3.61 8.95,8.742 0.24,6.098 0.52,17.289 0.52,32.93 v 7.988 c 0,12.121 -1.67,25.981 -4.08,32.602 -2.13,5.98 -5.58,8.199 -12.9,8.418 -5.25,0.25 -5.98,0.68 -5.98,3.422 v 4.097"
         style="fill:#b72021;fill-opacity:1;fill-rule:nonzero;stroke:none"
         id="path86" />
      <path
         d="m 1896.83,303.625 c -0.26,-3.891 -0.73,-4.348 -3.38,-4.348 h -3.77 c -2.4,0 -2.4,0 -4.78,6.2 -2.63,6.3 -10.03,10.007 -20.47,10.007 -11.39,0 -19.07,-6.339 -19.07,-15.75 0,-6.527 3.33,-10.929 12.65,-16.269 5.47,-3.168 5.47,-3.168 21.39,-10.488 15.51,-7.039 24.51,-18.512 24.51,-31.911 0,-22.101 -19.71,-36.89 -49.7,-36.89 -11.44,0 -22.98,2.422 -30.8,6.531 -3.38,1.43 -4.08,2.949 -3.86,6.777 l 1.43,16.582 c 0.22,2.899 1.45,4.129 4.1,4.129 h 4.01 c 2.65,0 2.86,0 4.32,-6.308 2.18,-8.332 12.21,-14.641 23.45,-14.641 12.14,0 20.61,6.602 20.61,16.059 0,7.281 -3.75,11.191 -16.84,17.269 -30.57,13.883 -38.2,22.172 -38.2,40.203 0,23.739 17.33,37.828 46.78,37.828 8.99,0 18.77,-1.691 24.51,-4.128 3.8,-1.461 4.76,-2.7 4.76,-5.61 v -0.672 l -1.65,-14.57"
         style="fill:#b72021;fill-opacity:1;fill-rule:nonzero;stroke:none"
         id="path88" />
      <path
         d="m 1971.55,364.086 c 0,-9.988 -8.27,-18.012 -18.41,-18.012 -10.24,0 -18.59,7.801 -18.59,17.821 0,10.41 7.85,17.043 19.54,17.043 10.08,0 17.46,-6.633 17.46,-16.852 m -29.39,-82.82 c 0,28.672 -0.42,30.359 -10.21,31.511 -5.51,0.489 -6.7,1.231 -6.7,3.649 v 4.39 c 0,2.7 0.69,3.379 4.07,3.661 l 33.87,3.64 1.73,0.219 1.9,0.281 c 2.13,0 3.08,-1.691 3.08,-4.633 0,-0.468 0,-0.468 -0.21,-9.468 -0.23,-4.129 -0.43,-27.68 -0.43,-41.051 v -12.098 c 0,-14.211 0.2,-27.07 0.43,-32.922 0.46,-5.129 1.86,-6.519 8.7,-8.738 7.21,-2.23 7.41,-2.461 7.41,-5.859 v -3.832 c 0,-2.219 -0.71,-3.231 -2.6,-3.231 h -1.69 c -6.17,0.473 -16.85,0.762 -25.52,0.762 -9.03,0 -20.48,-0.289 -26.44,-0.762 h -1.66 c -2.16,0 -2.64,0.762 -2.64,3.231 v 3.832 c 0,3.398 0,3.398 7.44,5.859 7.39,2.418 8.52,3.609 9.05,8.738 0.2,6.321 0.42,17.5 0.42,32.922 v 19.899"
         style="fill:#b72021;fill-opacity:1;fill-rule:nonzero;stroke:none"
         id="path90" />
      <path
         d="m 2021.59,293.625 c -0.22,14.098 -0.22,14.328 -5.97,14.328 -0.95,0 -0.95,0 -4.31,-0.23 h -6.14 c -1.96,-0.239 -3.32,-0.239 -3.61,-0.239 -1.45,0 -2.39,0.711 -2.39,1.411 0,0.5 0.25,1.738 0.94,3.148 l 2.86,8.031 c 2,5.34 2.42,5.84 4.8,5.84 0.68,0 2.85,-0.211 5.73,-0.5 l 2.86,-0.23 c 4.3,0 5.92,1.5 5.92,5.121 0,1.238 -0.24,9.031 -0.69,16.09 -0.22,3.847 -0.22,7.488 -0.22,10.179 0,5.321 1.35,7.328 6.63,9.239 l 15.05,5.339 c 4.8,1.711 4.8,1.711 5.5,1.711 1.41,0 2.4,-1.711 2.4,-3.621 0,-1.5 -0.26,-4.179 -0.72,-7.109 -0.78,-6.047 -2.38,-26.469 -2.38,-31.078 0,-4.371 1.13,-5.141 8.07,-5.141 h 19.49 c 5.71,0 8.83,0.281 11.96,0.77 h 1.44 c 1.2,0 1.94,-0.77 1.94,-1.989 0,-1.453 -0.74,-3.871 -2.89,-11.172 -1.12,-5.07 -2.21,-6.039 -6.04,-6.039 -0.92,0 -0.92,0 -7.09,0.469 -1.68,0 -4.47,0.242 -9.01,0.5 -5.31,0.199 -6.94,0.199 -9.05,0.199 -7.69,0 -7.69,0 -7.69,-10.41 v -37.398 c 0,-19.051 0.47,-25.301 2.86,-29.969 2.19,-4.57 6.94,-7.031 14.38,-7.031 5.21,0 10.86,0.949 19.2,3.179 1.45,0.461 2.68,0.711 3.13,0.711 1.23,0 1.74,-0.711 1.74,-1.941 0,-3.41 -1.93,-15.09 -2.61,-16.039 -1.79,-2.488 -18.17,-5.578 -29.36,-5.578 -27.21,0 -37.47,7.957 -37.47,29.137 l 0.3,14.351 c 0.22,5.859 0.44,10.039 0.44,13.18 v 32.781"
         style="fill:#b72021;fill-opacity:1;fill-rule:nonzero;stroke:none"
         id="path92" />
      <path
         d="m 2144.61,287.09 11.1,1.012 c 4.24,0.23 15.93,1.168 20.15,1.929 3.65,0.211 5.04,1.692 5.04,4.871 0,4.368 -1.66,9.629 -4.55,13.547 -2.83,3.864 -7.55,6.071 -14,6.071 -7.64,0 -15.32,-3.68 -19.65,-9.27 -3.76,-4.527 -6.63,-11.629 -6.63,-15.711 0,-1.988 0.93,-2.719 3.3,-2.719 z m -4.03,-11.867 c -8.83,0 -9.79,-0.762 -9.79,-9.032 0,-23.128 15.02,-40.402 35.64,-40.402 11.85,0 29.01,5.832 36.89,12.41 l 0.97,0.692 c 0.68,0 1.41,-0.969 1.41,-2.2 0,-3.628 -2.13,-19.66 -2.64,-21.39 -0.69,-1.449 -3.31,-2.91 -9.98,-5.551 -8.61,-3.437 -20.06,-5.578 -29.97,-5.578 -34.93,0 -59.03,24.008 -59.03,58.609 0,37.649 25.48,65.821 60.23,65.821 28.04,0 43.54,-16.039 43.54,-44.891 0,-6.59 -2.66,-8.488 -11.66,-8.488 h -55.61"
         style="fill:#b72021;fill-opacity:1;fill-rule:nonzero;stroke:none"
         id="path94" />
      <path
         d="m 2275.06,364.086 c 0,-9.988 -8.28,-18.012 -18.79,-18.012 -10.23,0 -18.57,7.801 -18.57,17.821 0,10.41 7.83,17.043 19.58,17.043 10.44,0 17.78,-6.633 17.78,-16.852 m -29.73,-82.82 c 0,28.672 -0.49,30.359 -10.26,31.511 -5.48,0.489 -6.66,1.231 -6.66,3.649 v 4.39 c 0,2.7 0.68,3.379 4.03,3.661 l 34.13,3.64 1.92,0.219 1.78,0.281 c 2.18,0 3.13,-1.691 3.13,-4.633 0,-0.468 0,-0.468 -0.22,-9.468 -0.28,-4.129 -0.52,-27.68 -0.52,-41.051 v -12.098 c 0,-14.211 0.24,-27.07 0.52,-32.922 0.51,-5.129 1.88,-6.519 8.8,-8.738 7.18,-2.23 7.36,-2.461 7.36,-5.859 v -3.832 c 0,-2.219 -0.67,-3.231 -2.59,-3.231 h -1.67 c -6.18,0.473 -16.82,0.762 -25.94,0.762 -9.06,0 -20.48,-0.289 -26.45,-0.762 h -1.66 c -2.14,0 -2.62,0.762 -2.62,3.231 v 3.832 c 0,3.398 0,3.398 7.43,5.859 7.37,2.418 8.54,3.609 9,8.738 0.26,6.321 0.49,17.5 0.49,32.922 v 19.899"
         style="fill:#b72021;fill-opacity:1;fill-rule:nonzero;stroke:none"
         id="path96" />
      <path
         d="m 2325.15,293.625 c -0.25,14.098 -0.25,14.328 -5.98,14.328 -0.95,0 -0.95,0 -4.29,-0.23 h -6.17 c -1.92,-0.239 -3.34,-0.239 -3.59,-0.239 -1.43,0 -2.42,0.711 -2.42,1.411 0,0.5 0.3,1.738 0.99,3.148 l 2.88,8.031 c 1.9,5.34 2.34,5.84 4.75,5.84 0.75,0 2.88,-0.211 5.74,-0.5 l 2.85,-0.23 c 4.29,0 5.97,1.5 5.97,5.121 0,1.238 -0.2,9.031 -0.73,16.09 -0.25,3.847 -0.25,7.488 -0.25,10.179 0,5.321 1.4,7.328 6.65,9.239 l 14.65,5.339 c 4.78,1.711 4.78,1.711 5.5,1.711 1.39,0 2.4,-1.711 2.4,-3.621 0,-1.5 -0.31,-4.179 -0.75,-7.109 -0.74,-6.047 -2.37,-26.469 -2.37,-31.078 0,-4.371 1.2,-5.141 8.03,-5.141 h 19.55 c 5.73,0 8.81,0.281 12.37,0.77 h 1.45 c 1.19,0 1.91,-0.77 1.91,-1.989 0,-1.453 -0.72,-3.871 -2.88,-11.172 -1.41,-5.07 -2.59,-6.039 -6.45,-6.039 -0.93,0 -0.93,0 -7.14,0.469 -1.65,0 -4.49,0.242 -9.06,0.5 -5.18,0.199 -6.83,0.199 -8.97,0.199 -7.61,0 -7.61,0 -7.61,-10.41 v -37.398 c 0,-19.051 0.43,-25.301 2.81,-29.969 2.17,-4.57 6.94,-7.031 14.27,-7.031 5.21,0 10.9,0.949 19.31,3.179 1.92,0.461 3.1,0.711 3.56,0.711 1.2,0 1.65,-0.711 1.65,-1.941 0,-3.41 -1.86,-15.09 -2.61,-16.039 -2.11,-2.488 -18.55,-5.578 -29.73,-5.578 -27.1,0 -36.99,7.957 -36.99,29.137 l 0.21,14.351 c 0.24,5.859 0.49,10.039 0.49,13.18 v 32.781"
         style="fill:#b72021;fill-opacity:1;fill-rule:nonzero;stroke:none"
         id="path98" />
    </g>
  </g>
</svg>
