<?xml version="1.0" encoding="UTF-8" standalone="no"?>
<!-- Created with Inkscape (http://www.inkscape.org/) -->

<svg
   version="1.1"
   id="svg2"
   width="50.666668"
   height="66.666664"
   viewBox="0 0 50.666668 66.666664"
   sodipodi:docname="rutitlepage-logo.eps"
   xmlns:inkscape="http://www.inkscape.org/namespaces/inkscape"
   xmlns:sodipodi="http://sodipodi.sourceforge.net/DTD/sodipodi-0.dtd"
   xmlns="http://www.w3.org/2000/svg"
   xmlns:svg="http://www.w3.org/2000/svg">
  <defs
     id="defs6">
    <clipPath
       clipPathUnits="userSpaceOnUse"
       id="clipPath20">
      <path
         d="M 0,9 V 492 H 376 V 9 Z"
         id="path18" />
    </clipPath>
  </defs>
  <sodipodi:namedview
     id="namedview4"
     pagecolor="#ffffff"
     bordercolor="#666666"
     borderopacity="1.0"
     inkscape:showpageshadow="2"
     inkscape:pageopacity="0.0"
     inkscape:pagecheckerboard="0"
     inkscape:deskcolor="#d1d1d1"
     showgrid="false" />
  <g
     id="g10"
     inkscape:groupmode="layer"
     inkscape:label="Page 1"
     transform="matrix(1.3333333,0,0,-1.3333333,0,66.666667)">
    <g
       id="g12"
       transform="scale(0.1)">
      <g
         id="g14">
        <g
           id="g16"
           clip-path="url(#clipPath20)">
          <path
             d="m 30.7383,196.504 c -0.7774,-3.91 -5.6172,-9.219 -11.3594,-9.809 -8.0508,-0.191 -14.76952,6.41 -15.16015,11.961 -0.30859,5.231 0.08203,6.598 0.08203,6.598 l 27.02732,-0.899 c -0.0781,-2.968 0.1914,-4.492 -0.5898,-7.851 z m 3.6406,17.973 -1.0195,-2.352 -29.44924,0.789 -1.96094,2.461 L 0,215.336 v -18.051 c -0.429688,-8.238 7.96875,-18.238 19.2188,-18.199 10.5507,0.578 15.6601,10.539 16.371,19.801 l 1.129,15.629 -2.3399,-0.039"
             style="fill:#231f20;fill-opacity:1;fill-rule:nonzero;stroke:none"
             id="path22" />
          <path
             d="m 12.3789,129.086 5.7422,-11.492 1.2578,0.75 -0.668,3 26.9883,11.961 1.3711,-1.719 2.3399,1.129 -5.0313,10.308 -1.6094,-0.699 0.0391,-3.199 -26.4805,-11.57 -2.3086,1.761 -1.6406,-0.23"
             style="fill:#231f20;fill-opacity:1;fill-rule:nonzero;stroke:none"
             id="path24" />
          <path
             d="m 21.1289,141.156 v -1.25 l -7.6875,-1.601 c -4.38281,2.968 -6.45312,6.129 -7.74218,11.289 -2.5,10.031 0,19.332 13.12888,23 13.793,4.301 19.4922,-4.649 22.461,-15.078 0.8593,-3.082 0.9023,-5.313 1.4414,-8.672 l -7.3008,-2.028 -1.0195,1.489 c 2.8906,2.57 3.789,6.441 2.8203,10.148 -1.4102,5.672 -7.9297,8.91 -13.25,6.762 l 3.8281,-16.719 2.9727,-1.25 0.5468,-1.601 -7.8086,-1.989 -0.5078,1.598 1.1289,1.762 -4.2187,16.789 C 13.3984,163.453 8.58984,156.734 10,150.414 c 0.8984,-4.07 5.7813,-8.68 11.1289,-9.258"
             style="fill:#231f20;fill-opacity:1;fill-rule:nonzero;stroke:none"
             id="path26" />
          <path
             d="m 15.3906,222.203 c -0.9414,2.031 0,4.492 2.1094,5.434 2.0313,0.816 4.4492,0.277 5.2695,-1.481 1.1016,-2.109 0,-4.492 -1.9101,-5.98 -2.0313,-0.942 -4.4883,0 -5.4688,2.027"
             style="fill:#231f20;fill-opacity:1;fill-rule:nonzero;stroke:none"
             id="path28" />
          <path
             d="m 38.4805,115.176 c -0.9414,2.109 -0.0821,4.488 1.3984,5.429 1.8399,0.981 4.5313,0 6.1016,-2.152 0.8984,-2.027 -0.0391,-4.527 -2.0703,-5.348 -2.0704,-0.98 -4.461,0 -5.4297,2.071"
             style="fill:#231f20;fill-opacity:1;fill-rule:nonzero;stroke:none"
             id="path30" />
          <path
             d="m 242.699,36.3047 c -0.937,2.1094 0.071,4.5 2.223,5.4297 2.148,0.9414 4.566,0 5.43,-2.0313 0.777,-2.0664 0,-4.4883 -2.114,-5.5078 -2.027,-0.9297 -4.449,0.0391 -5.539,2.1094"
             style="fill:#231f20;fill-opacity:1;fill-rule:nonzero;stroke:none"
             id="path32" />
          <path
             d="m 23.75,289.086 -5.8594,-11.492 1.3711,-0.469 2.4571,2.109 26.0507,-13.429 -0.539,-2.149 2.3398,-0.941 4.7305,10.082 -1.6797,0.777 -2.3906,-1.719 -24.9219,13.36 -0.2695,2.73 -1.2891,1.141"
             style="fill:#231f20;fill-opacity:1;fill-rule:nonzero;stroke:none"
             id="path34" />
          <path
             d="m 39.9609,238.656 -1.6406,0.469 -1.5195,-1.18 -19.5,4.18 27.8984,10.629 2.5313,6.441 -2.0703,0.469 -1.8711,-0.82 -26.211,10.429 -0.1992,2.5 -1.9101,0.59 -3.2774,-9.019 2.418,-0.899 2.2304,1.168 18.629,-7.269 -29.76958,-11.438 -1.32031,-4.461 31.08989,-6.871 1.332,-1.48 1.168,-0.508 1.9921,7.07"
             style="fill:#231f20;fill-opacity:1;fill-rule:nonzero;stroke:none"
             id="path36" />
          <path
             d="m 88.1992,57.9141 c -1.1289,-1.1797 -5.5,-5.3203 -10.039,-5.4297 -1.9102,0 -3.6289,0.582 -5.2305,2.1406 L 72.5,55.1367 c -1.5195,1.0977 -2.1914,2.418 -2.3008,4.3789 0,3.75 3.1992,8.7891 5.6211,11.3594 2.0313,2.0391 9.3789,9.7695 15.1602,4.5391 l 0.8593,-0.7891 c 5.6211,-5.4609 -1.9609,-15 -3.6406,-16.7109 z m 11.3711,6.6797 c 0.2695,4.8828 -0.6992,9.1015 -3.9101,12.3828 l -0.461,0.539 L 95,77.7148 94.7695,77.875 94.6094,78.0234 94.1406,78.375 c -3.4804,3.0508 -7.6914,4.0313 -12.6211,3.4805 -5.2304,-0.5117 -10.1484,-3.2813 -13.3593,-7.9297 -5.6211,-7.0703 -5.5391,-16.211 1.1015,-22.8125 l 0.1875,-0.1602 h -0.039 l -0.0704,0.0821 0.1094,-0.0821 c 7.1094,-5.9375 16.3321,-5.6172 23.25,0.1211 4.0625,3.4024 6.5625,8.3594 6.8711,13.5196"
             style="fill:#231f20;fill-opacity:1;fill-rule:nonzero;stroke:none"
             id="path38" />
          <path
             d="m 142.031,15.4844 12.11,-2.6485 0.121,1.3985 -2.66,2 5.699,28.5117 2.699,0.1172 0.16,2.5 -11.101,1.9922 -0.469,-1.9102 2.781,-2.0312 -5.633,-27.5391 -2.929,-0.8203 -0.778,-1.5703"
             style="fill:#231f20;fill-opacity:1;fill-rule:nonzero;stroke:none"
             id="path40" />
          <path
             d="m 234.34,28.6133 1.25,-0.0781 2.461,-7.5391 c -3.25,-4.1797 -6.25,-6.1719 -11.531,-7.3008 -10.149,-2.1914 -19.372,0.0781 -22.379,12.8516 -4.411,13.8984 4.531,19.4492 14.961,22.5 3.199,0.8984 5.347,0.8984 8.789,1.3672 l 1.91,-7.5391 -1.52,-0.9414 c -2.5,3.0117 -6.332,3.9805 -10.16,3.1602 -5.582,-1.4805 -9.101,-8.1172 -7.141,-13.5899 l 16.79,3.832 1.371,3.0391 1.64,0.4297 1.84,-7.8086 -1.723,-0.3906 -1.679,1.0898 -16.598,-3.9414 c 0.309,-6.2891 6.719,-11.0586 13.199,-9.7305 4.18,0.711 8.91,5.2813 8.52,10.5899"
             style="fill:#231f20;fill-opacity:1;fill-rule:nonzero;stroke:none"
             id="path42" />
          <path
             d="m 72.7305,97.7969 -1.3594,-1.1016 0.2305,-1.9922 -14.3321,-14.5664 6.3594,29.0583 -4.0195,5.551 -1.4102,-1.371 -0.3906,-2.07 -23.3984,-16.2503 -2.2188,1.1797 -1.4531,-1.25 6.0625,-7.8203 2.0273,1.6406 0.2305,2.5 16.1406,11.5703 -6.6094,-30.8984 3.129,-3.5625 22.8125,22.6992 1.9492,0.3906 1.0586,0.6602 -4.8086,5.6328"
             style="fill:#231f20;fill-opacity:1;fill-rule:nonzero;stroke:none"
             id="path44" />
          <path
             d="m 188.398,44.5547 -0.117,-1.7188 1.719,-1.1718 1.988,-20.0391 -18.828,24.1016 -6.519,0.6601 0.199,-1.9922 1.25,-1.6797 -2.27,-28.5507 -2.379,-1.0977 -0.043,-1.9101 9.454,-0.1211 0.16,2.6601 -1.641,1.75 1.289,19.6914 19.762,-25.15232 4.648,0.03122 -2.539,31.5313 1.059,1.7578 0.109,1.2891 -7.301,-0.0391"
             style="fill:#231f20;fill-opacity:1;fill-rule:nonzero;stroke:none"
             id="path46" />
          <path
             d="m 89.3789,37.5547 0.8906,1.9609 2.7422,-0.2422 18.7893,21.5313 -0.942,2.2617 1.52,1.7578 5.82,-2.5 -0.929,-21.3281 12.031,13.9883 -0.59,1.1289 1.019,0.7422 8.469,-3.4414 -0.109,-2.1407 -1.488,-0.707 -3.793,-29.0625 2.07,-2.3789 -0.578,-1.7187 -9.922,4.4101 0.582,2.0703 1.801,0.4297 2.726,22.9297 -17.609,-21.0508 -3.559,1.168 2.418,26.4101 -14.2888,-17.1484 1.2813,-2.4297 -0.5391,-1.25 -7.8125,4.6094"
             style="fill:#231f20;fill-opacity:1;fill-rule:nonzero;stroke:none"
             id="path48" />
          <path
             d="m 312.969,75.1758 1.172,0.5508 5.121,-6.0235 c -0.59,-5.3476 -2.352,-8.5468 -6.371,-12.1875 -7.852,-7.3789 -17.192,-9.5703 -26.481,0.2813 -9.808,10.5078 -4.73,19.7578 3.199,27.2578 2.301,2.2695 4.219,3.3984 7.032,5.4297 l 5.308,-5.6211 -0.777,-1.5586 c -3.793,1.3984 -7.582,0.3516 -10.473,-2.2695 -4.41,-3.8321 -4.289,-11.211 0.199,-14.9219 l 13.122,11.25 -0.348,3.2812 1.129,1.1719 5.469,-5.4297 -1.25,-1.1719 -2.071,0.0391 -13.199,-12.2695 c 3.281,-5.5781 11.449,-6.7891 16.41,-2.0313 3.199,2.7422 4.801,9.1836 2.809,14.2227"
             style="fill:#231f20;fill-opacity:1;fill-rule:nonzero;stroke:none"
             id="path50" />
          <path
             d="m 354.262,252.016 v 1.289 l 7.769,1.679 c 4.379,-3.25 6.289,-6.211 7.457,-11.41 2.543,-10.121 -0.226,-19.449 -13.039,-22.929 -13.48,-4.18 -19.609,4.73 -22.39,15.199 -0.899,3.082 -0.969,5.312 -1.481,8.75 l 7.383,1.992 0.98,-1.531 c -2.929,-2.5 -3.91,-6.399 -2.929,-10.192 1.328,-5.699 7.769,-8.988 13.277,-6.879 l -3.75,16.801 -3.129,1.289 -0.43,1.641 7.969,2.148 0.352,-1.41 -1.129,-2.18 4.219,-16.878 c 6.519,0.199 11.41,6.949 10.039,13.402 -0.821,4.098 -5.782,8.59 -11.168,9.219"
             style="fill:#231f20;fill-opacity:1;fill-rule:nonzero;stroke:none"
             id="path52" />
          <path
             d="m 329.059,258.695 c -3.321,6.91 -5.188,17.11 3.871,19.41 7.5,2.032 11.992,-5.16 13.011,-10.902 z m 29.461,14.961 -8.719,-4.383 c -0.031,6.723 1.719,14.223 1.019,18.012 -1.289,5.469 -2.968,6.91 -7.34,10.551 l -1.289,-1.02 c 1.289,-2.191 1.789,-2.191 2.649,-5.472 1.14,-4.649 1.019,-7.61 -0.11,-12.258 -2.539,4.719 -8.089,6.641 -14.031,4.918 -7.301,-1.949 -11.519,-9.57 -8.238,-16.52 l 7.309,-16.961 2.46,1.102 0.622,1.602 26.168,13.437 1.839,-1.219 1.442,0.469 -3.781,7.742"
             style="fill:#231f20;fill-opacity:1;fill-rule:nonzero;stroke:none"
             id="path54" />
          <path
             d="m 339.531,183.844 0.117,27.109 -2.226,7.391 9.297,-5.899 c -0.938,-0.242 -1.719,-0.55 -2.309,-1.019 -0.969,-0.981 -0.969,-5.039 -1.129,-11.129 l 29.84,0.43 0.551,1.289 1.558,-0.082 0.04,-10.661 h -0.86 l -1.32,2.532 -29.57,-0.5 c 0.031,-3.25 -0.43,-8.008 0.46,-8.75 0.321,-0.321 0.942,-0.668 1.719,-0.942 l -7.808,-5.16 1.64,5.391"
             style="fill:#231f20;fill-opacity:1;fill-rule:nonzero;stroke:none"
             id="path56" />
          <path
             d="m 370.781,158.066 2.309,12.231 -1.371,0.117 -2.11,-2.5 -28.789,5.109 -0.269,2.114 -2.43,0.199 -1.519,-11.211 1.796,-0.199 1.801,2.23 28.039,-4.851 0.981,-2.571 1.562,-0.668"
             style="fill:#231f20;fill-opacity:1;fill-rule:nonzero;stroke:none"
             id="path58" />
          <path
             d="m 358.09,151.734 1.25,1.332 6.75,-3.121 c 1.41,-5.511 1.18,-9.461 -1.211,-14.531 -4.879,-9.461 -11.949,-15.789 -25.348,-10.277 -13.051,5.898 -11.601,16.636 -7.23,26.718 1.371,3.09 2.66,4.809 4.34,7.7 l 7.461,-2.86 -0.551,-1.992 c -3.942,-0.187 -6.75,-1.988 -8.43,-5.469 -2.82,-5.578 1.52,-10.578 6.68,-14.64 5.148,-3.867 16.359,-2.188 19.289,3.59 1.801,3.91 0.75,9.691 -3,13.55"
             style="fill:#231f20;fill-opacity:1;fill-rule:nonzero;stroke:none"
             id="path60" />
          <path
             d="m 348.199,100.176 6.211,10.937 -1.398,0.043 -2.582,-1.531 -26.602,14.57 0.551,2.11 -2.27,0.941 -4.179,-10 1.679,-0.859 2.5,1.527 24.77,-13.91 0.191,-2.66 1.129,-1.168"
             style="fill:#231f20;fill-opacity:1;fill-rule:nonzero;stroke:none"
             id="path62" />
          <path
             d="m 327.621,72.5938 17.301,19.8125 -3.711,9.4887 -2.461,-2.4614 c 0,0 0.859,-3.9883 0.512,-6.3672 -0.742,-4.8008 -7.313,-10.5508 -7.313,-10.5508 l -22.418,18.5974 0.981,2.383 -2.032,1.367 -7.742,-9.7692 2.071,-1.4375 2.5,1.1289 21.8,-18.2383 -0.429,-2.543 0.941,-1.4101"
             style="fill:#231f20;fill-opacity:1;fill-rule:nonzero;stroke:none"
             id="path64" />
          <path
             d="m 267.621,27.0156 9.328,5.0782 -0.969,1.1328 -2.429,0.3476 -6.672,13.5508 c 0,0 5.543,3.9883 9.101,4.7305 1.75,0.4297 4.571,0.3906 4.571,0.3906 l -3.403,6.8398 c 0,0 -1.597,-2.0703 -2.808,-3.2109 -2.66,-2.5703 -9.418,-4.8789 -9.418,-4.8789 l -4.723,9.8789 c 0,0 6.602,4.6914 10.852,5.9805 1.371,0.3906 4.07,0.8984 4.07,0.8984 0,0 0.109,1.8711 0.5,2.9297 0.59,1.832 2.309,4.4531 2.309,4.4531 l -27.379,-16.0117 0.578,-2.0312 2.699,0.0312 13.203,-26.25 -0.621,-2.2617 1.211,-1.5977"
             style="fill:#231f20;fill-opacity:1;fill-rule:nonzero;stroke:none"
             id="path66" />
          <path
             d="m 288.672,293.184 -81.133,12.769 c 1.012,-2.5 1.641,-5.308 1.641,-8.117 0,-11.641 -9.34,-21.02 -21.059,-21.02 -0.152,0 -0.461,0.039 -0.699,0.039 h -0.043 c -0.231,0 -0.391,-0.039 -0.617,-0.039 -11.563,0 -20.512,9.379 -20.512,21.02 0,2.809 0.59,5.617 1.559,8.117 L 87.1094,293.184 c -2.3399,13.75 -3.5196,26.519 -3.5196,37.929 0,4.102 0.1993,7.934 0.5118,11.801 H 132.34 c 13.281,0 14.379,-1.367 15,-2 0.898,-0.82 1.101,-3.039 -0.11,-3.898 -2.89,-1.801 -7.308,-3.95 -7.308,-10.469 v -0.352 c 0,-5.199 4.609,-7.148 15.59,-11.531 3.16,-1.211 14.258,-5.578 14.258,-5.578 l 2.3,1.289 c 3.871,1.988 12.11,7.539 12.11,16.988 0,1.211 -0.16,2.192 -0.309,3.051 -0.32,1.25 -0.82,2.383 -1.371,3.32 v 0.071 c -1.762,3.289 -3.871,4.261 -3.871,4.261 0,0 1.062,4.489 7.543,5.039 v -0.039 c 0.308,0.079 0.469,0.118 0.738,0.118 h 0.512 c 3.238,0 5.43,-2.7 5.43,-5.86 0,-3.949 -2.543,-4.769 -2.543,-9.961 -0.039,-9.449 8.211,-15 12.031,-16.988 l 2.5,-1.289 c 0,0 11.289,4.367 14.379,5.578 11.172,4.383 15.621,6.332 15.621,11.531 v 0.352 c 0,6.519 -4.328,8.668 -7.141,10.469 -1.449,0.859 -1.179,3.078 -0.199,3.898 0.621,0.633 1.801,2 14.84,2 h 49.422 c 0.308,-3.867 0.539,-7.699 0.539,-11.801 0,-11.41 -1.25,-24.179 -3.629,-37.929 z m -7.262,-32.309 -68.519,31.328 c 24.097,-3.75 59.058,-9.258 73.32,-11.476 -1.371,-6.532 -2.973,-12.973 -4.801,-19.852 z m -75.039,20.43 43.359,-20.43 h -29.808 z m 61.559,-62.692 h -51.989 v 29.532 h 61.868 c -2.887,-9.489 -6.168,-19.411 -9.879,-29.532 z m -74.02,42.262 v 16.059 l 10.699,-16.059 z m -23.48,0 10.66,16.059 v -16.059 z m 90.781,-59.84 c -3.402,-8.398 -6.91,-16.48 -10.621,-24.691 H 203.199 V 88.1836 c -4.679,-6.7969 -8.82,-12.2305 -12.258,-15.9805 -0.941,-1.0078 -2.5,-2.5781 -3.519,-3.3164 -0.902,0.7383 -2.301,2.3086 -3.363,3.3164 -3.438,3.75 -7.61,9.1836 -12.297,15.9805 v 88.1604 h -46.801 c -3.672,8.211 -7.231,16.293 -10.473,24.691 -0.66,1.641 -1.328,3.238 -1.949,4.84 h 59.223 v 42.27 h 31.437 v -42.27 h 59.922 c -0.582,-1.602 -1.242,-3.199 -1.91,-4.84 z m -45.27,-92.851 v 55.39 h 29.02 c -9.762,-20.66 -19.762,-39.769 -29.02,-55.39 z m -56.453,0 c -9.289,15.621 -19.367,34.73 -29.058,55.39 h 29.058 z M 98.0508,248.145 H 159.488 V 218.613 H 107.77 c -3.75,10.121 -6.829,20.043 -9.7192,29.532 z m 70.8202,33.16 -13.519,-20.43 h -29.454 z m -74.4608,-20.43 c -1.8711,6.879 -3.4688,13.32 -4.8399,19.852 14.1017,2.218 48.7497,7.726 72.9297,11.476 z m 92.9688,100.398 h 101.293 c 0.508,-1.878 0.976,-3.949 1.328,-5.976 h -47.66 c -20.192,0 -28.82,-4.922 -28.82,-16.723 0,-3.629 1.992,-7.539 5.269,-10.308 -2.309,-0.942 -11.988,-4.422 -13.398,-5.039 -1.129,1.328 -3.321,3.359 -3.629,6.597 0.968,1.563 3.078,4.77 3.078,9.41 0,7.27 -5,14.61 -17.692,14.961 -5.859,-0.23 -9.57,-1.949 -12.539,-4.289 -0.199,-0.242 -0.308,-0.39 -0.507,-0.59 -5.274,-1.441 -8.59,-5.121 -8.59,-9.8 v -5.039 c 0,0 2.297,-0.243 3.629,-0.743 1.718,-0.75 2.379,-1.64 2.89,-2.347 1.449,-2.071 0.239,-6.684 -2.691,-8.16 -1.371,0.617 -11.059,4.097 -13.442,5.039 3.321,2.769 5.473,6.679 5.473,10.308 0,11.801 -8.711,16.723 -29.031,16.723 H 85.7383 c 0.4336,2.027 0.8203,4.098 1.3711,5.976 z m -64.758,42.422 c 0,3.899 1.25,8.981 12.539,8.981 9.141,0 12.852,-1.371 14.41,-2.539 0.782,-0.473 1.801,-1.25 1.801,-5.121 0,0 0,-20.192 0,-30.969 h -28.75 z m 51.129,35.231 v -4.262 c -7.5,-2.258 -13.789,-6.828 -18.09,-13.32 -3.469,2.109 -7.808,3.09 -12.219,3.562 8.629,7.071 19.329,11.828 30.309,14.02 z m -8.199,24.847 h 18.16 v 18.161 h 7.617 v -18.161 h 18.473 v -8.089 h -18.473 v -18.438 h -7.617 v 18.438 h -18.16 z m 45.738,-58.757 v -30.969 h -47.23 v 30.969 c 0,8.91 5.863,19.179 23.32,19.179 h 0.043 c 17.777,0 23.867,-10.269 23.867,-19.179 z m 20.621,19.89 c -4.449,-0.472 -8.672,-1.453 -12.262,-3.562 -4.179,6.492 -10.468,11.062 -18.476,13.32 v 4.262 c 11.449,-2.192 22.148,-6.949 30.738,-14.02 z m 21.102,-21.211 V 374.047 H 223.98 v 30.969 c 0,3.871 1.059,4.648 1.719,5.121 1.602,1.168 5.391,2.539 14.571,2.539 11.41,0 12.742,-5.082 12.742,-8.981 z m 46.558,-34.031 -1.558,4.383 h -32.231 v 29.648 c 0,8.2 -4.101,16.828 -15.082,20.192 -7.929,9.609 -18.789,17.578 -31.008,22.699 v 27.07 h -18.519 v 18.239 H 173.75 v -18.239 h -18.09 v -27.07 c -12.219,-5.121 -23.238,-13.09 -30.93,-22.699 -10.75,-3.364 -14.929,-11.992 -14.929,-20.192 V 374.047 H 77.6992 l -1.4101,-4.383 c -3.8672,-11.789 -5.5899,-24.758 -5.5899,-38.859 0,-43.68 16.1406,-94.731 31.9218,-134.532 23.981,-60.199 55.66,-114.6871 72.149,-132.8199 3.902,-3.9375 7.07,-7.3789 12.3,-7.6093 0.078,-0.0391 0.231,0 0.309,0 h 0.043 c 0.156,0 0.238,-0.0391 0.387,0 5.351,0.2304 8.562,3.6718 12.421,7.6093 16.879,18.1328 48.829,72.6209 72.782,132.8199 15.937,39.801 32.027,90.852 32.027,134.532 0,14.101 -1.488,27.07 -5.469,38.859"
             style="fill:#231f20;fill-opacity:1;fill-rule:nonzero;stroke:none"
             id="path68" />
        </g>
      </g>
    </g>
  </g>
</svg>
