<?xml version="1.0" encoding="UTF-8" standalone="no"?>
<svg
   xmlns:dc="http://purl.org/dc/elements/1.1/"
   xmlns:cc="http://creativecommons.org/ns#"
   xmlns:rdf="http://www.w3.org/1999/02/22-rdf-syntax-ns#"
   xmlns:svg="http://www.w3.org/2000/svg"
   xmlns="http://www.w3.org/2000/svg"
   xmlns:sodipodi="http://sodipodi.sourceforge.net/DTD/sodipodi-0.dtd"
   xmlns:inkscape="http://www.inkscape.org/namespaces/inkscape"
   width="1000"
   height="1290.4274"
   viewBox="0 0 1000 1290.4274"
   version="1.1"
   id="svg12"
   sodipodi:docname="Shape.svg"
   inkscape:version="0.92.4 (5da689c313, 2019-01-14)">
  <metadata
     id="metadata16">
    <rdf:RDF>
      <cc:Work
         rdf:about="">
        <dc:format>image/svg+xml</dc:format>
        <dc:type
           rdf:resource="http://purl.org/dc/dcmitype/StillImage" />
        <dc:title>Shape</dc:title>
      </cc:Work>
    </rdf:RDF>
  </metadata>
  <sodipodi:namedview
     pagecolor="#ffffff"
     bordercolor="#111111"
     borderopacity="1"
     objecttolerance="10"
     gridtolerance="10"
     guidetolerance="10"
     inkscape:pageopacity="0"
     inkscape:pageshadow="2"
     inkscape:window-width="1920"
     inkscape:window-height="1017"
     id="namedview14"
     showgrid="false"
     fit-margin-top="0"
     fit-margin-left="0"
     fit-margin-right="0"
     fit-margin-bottom="0"
     inkscape:zoom="0.3881579"
     inkscape:cx="853.60092"
     inkscape:cy="462.01534"
     inkscape:window-x="1912"
     inkscape:window-y="-8"
     inkscape:window-maximized="1"
     inkscape:current-layer="svg12" />
  <!-- Generator: Sketch 46.2 (44496) - http://www.bohemiancoding.com/sketch -->
  <title
     id="title2">Shape</title>
  <desc
     id="desc4">Created with Sketch.</desc>
  <defs
     id="defs6" />
  <g
     id="Header-Spec"
     transform="matrix(69.69697,0,0,69.69697,-36.363627,0)"
     style="fill:none;fill-rule:evenodd;stroke:none;stroke-width:1">
    <g
       id="Header-&gt;-Spec"
       transform="translate(-114,-131)"
       style="fill:#121212">
      <g
         id="Group"
         transform="translate(85,118)">
        <path
           d="m 43.79782,24.4491 c -0.59826,1.580702 -1.701048,2.80268 -3.281751,3.449542 V 24.4491 l 1.891983,-1.701049 -1.891983,-1.676748 v -2.371054 c 1.724192,-0.120346 2.92187,-1.389768 2.92187,-2.94617 C 43.437939,13.718606 41.498511,13 40.395723,13 c -0.239536,0 -0.503372,0 -0.886397,0.09605 v 0.09605 c 0.14349,0 0.358724,-0.0243 0.430469,-0.0243 0.766051,0 1.341167,0.359881 1.341167,1.054187 0,0.526515 -0.431626,1.054187 -1.197677,1.054187 -1.891983,0 -4.119547,-1.533258 -6.539202,-1.533258 -2.155819,0 -3.640476,1.605003 -3.640476,3.23315 0,1.605003 0.933841,2.131518 1.916284,2.4914 l 0.0243,-0.09605 c -0.310123,-0.192091 -0.525357,-0.526515 -0.525357,-1.054187 0,-0.718606 0.671162,-1.316866 1.508957,-1.316866 2.035473,0 5.317224,1.701048 7.353854,1.701048 h 0.190934 v 2.395355 l -1.891983,1.65129 1.891983,1.701049 v 3.496986 c -0.790351,0.28698 -1.605003,0.407326 -2.442799,0.407326 -3.161405,0 -5.173734,-1.916284 -5.173734,-5.101989 0,-0.766051 0.09605,-1.508958 0.311281,-2.227564 l 1.580702,-0.694306 v 7.041417 l 3.210006,-1.412912 v -7.209207 l -4.718964,2.107217 c 0.479071,-1.388611 1.461514,-2.395354 2.63489,-2.970471 l -0.0243,-0.07174 c -3.161405,0.694306 -6.227922,3.089661 -6.227922,6.682692 0.0012,4.143848 3.498143,7.018273 7.569089,7.018273 4.311638,0 6.754436,-2.874425 6.778737,-7.065717 h -0.07174 z"
           id="Shape"
           inkscape:connector-curvature="0" />
      </g>
    </g>
  </g>
</svg>
